<?xml version="1.0" encoding="UTF-8" standalone="no"?>
<!DOCTYPE svg PUBLIC "-//W3C//DTD SVG 1.1//EN" "http://www.w3.org/Graphics/SVG/1.1/DTD/svg11.dtd">
<!-- Generated by graphviz version 2.40.1 (20161225.0304)
 -->
<!-- Title: %0 Pages: 1 -->
<svg width="164pt" height="146pt" viewBox="0.00 0.00 163.82 145.82" xmlns="http://www.w3.org/2000/svg" xmlns:xlink="http://www.w3.org/1999/xlink">
<g id="graph0" class="graph" transform="scale(1 1) rotate(0) translate(4 141.8234)">
<title>%0</title>
<polygon fill="#ffffff" stroke="transparent" points="-4,4 -4,-141.8234 159.8234,-141.8234 159.8234,4 -4,4"/>
<!-- 0 -->
<g id="node1" class="node">
<title>0</title>
<ellipse fill="none" stroke="#000000" cx="77.9117" cy="-68.9117" rx="27" ry="18"/>
<text text-anchor="middle" x="77.9117" y="-64.7117" font-family="Times,serif" font-size="14.00" fill="#000000">0</text>
</g>
<!-- 1 -->
<g id="node2" class="node">
<title>1</title>
<ellipse fill="none" stroke="#000000" cx="128.8234" cy="-119.8234" rx="27" ry="18"/>
<text text-anchor="middle" x="128.8234" y="-115.6234" font-family="Times,serif" font-size="14.00" fill="#000000">1</text>
</g>
<!-- 0&#45;&#45;1 -->
<g id="edge1" class="edge">
<title>0--1</title>
<path fill="none" stroke="#000000" d="M92.9115,-83.9115C99.4817,-90.4817 107.1768,-98.1768 113.7548,-104.7548"/>
</g>
<!-- 2 -->
<g id="node3" class="node">
<title>2</title>
<ellipse fill="none" stroke="#000000" cx="27" cy="-119.8234" rx="27" ry="18"/>
<text text-anchor="middle" x="27" y="-115.6234" font-family="Times,serif" font-size="14.00" fill="#000000">2</text>
</g>
<!-- 0&#45;&#45;2 -->
<g id="edge2" class="edge">
<title>0--2</title>
<path fill="none" stroke="#000000" d="M62.9119,-83.9115C56.3416,-90.4817 48.6466,-98.1768 42.0685,-104.7548"/>
</g>
<!-- 3 -->
<g id="node4" class="node">
<title>3</title>
<ellipse fill="none" stroke="#000000" cx="27" cy="-18" rx="27" ry="18"/>
<text text-anchor="middle" x="27" y="-13.8" font-family="Times,serif" font-size="14.00" fill="#000000">3</text>
</g>
<!-- 0&#45;&#45;3 -->
<g id="edge3" class="edge">
<title>0--3</title>
<path fill="none" stroke="#000000" d="M62.9119,-53.9119C56.3416,-47.3416 48.6466,-39.6466 42.0685,-33.0685"/>
</g>
<!-- 4 -->
<g id="node5" class="node">
<title>4</title>
<ellipse fill="none" stroke="#000000" cx="128.8234" cy="-18" rx="27" ry="18"/>
<text text-anchor="middle" x="128.8234" y="-13.8" font-family="Times,serif" font-size="14.00" fill="#000000">4</text>
</g>
<!-- 0&#45;&#45;4 -->
<g id="edge4" class="edge">
<title>0--4</title>
<path fill="none" stroke="#000000" d="M92.9115,-53.9119C99.4817,-47.3416 107.1768,-39.6466 113.7548,-33.0685"/>
</g>
<!-- 1&#45;&#45;2 -->
<g id="edge5" class="edge">
<title>1--2</title>
<path fill="none" stroke="#000000" d="M101.8039,-119.8234C87.0746,-119.8234 68.8947,-119.8234 54.1457,-119.8234"/>
</g>
<!-- 2&#45;&#45;3 -->
<g id="edge6" class="edge">
<title>2--3</title>
<path fill="none" stroke="#000000" d="M27,-101.6194C27,-83.0856 27,-54.5231 27,-36.0464"/>
</g>
<!-- 3&#45;&#45;4 -->
<g id="edge7" class="edge">
<title>3--4</title>
<path fill="none" stroke="#000000" d="M54.0195,-18C68.7488,-18 86.9287,-18 101.6776,-18"/>
</g>
</g>
</svg>